<svg height="512" viewBox="0 0 505.665 505.665" width="512" xmlns="http://www.w3.org/2000/svg"><path d="M505.665 257.111c0-133-107.817-240.817-240.817-240.817-92.673 0-149.76 52.273-149.917 52.362 0 0-2.373 2.962-2.817 4.932-3.606 16.006-6.975 37.457-6.975 53.11 0 133 112.158 240.791 245.157 240.791 51.215 0 108.195-24.546 146.331-54.059.853-.66 3.56-5.096 3.56-5.096.168-1.028 5.478-22.172 5.478-51.223z" fill="#78e9e1"/><path d="M494.237 183.594l-31.082-63.15c-43.445-62.92-116.061-104.15-198.307-104.15-92.673 0-149.76 52.273-149.917 52.362 0 0-2.373 2.962-2.817 4.932-3.606 16.006-6.975 37.457-6.975 53.11 0 133 112.158 240.791 245.157 240.791 51.215 0 108.195-24.546 146.331-54.059.853-.66 3.56-5.096 3.56-5.096.168-1.026 5.478-22.171 5.478-51.222 0-25.64-4.007-50.343-11.428-73.518z" fill="#78e9e1"/><path d="M500.187 308.333c-41.137 32.766-93.233 52.357-149.912 52.357-133 0-240.817-107.818-240.817-240.817 0-17.58 1.896-34.708 5.472-51.217-.006.004.006-.004 0 0-55.383 44.121-90.9 112.142-90.9 188.456 0 133 107.818 240.817 240.817 240.817 114.431-.001 211.652-80.254 235.34-189.596z" fill="#5fd2d0"/><path d="M421.605 131.216c19.72 19.72 9.393 62.019 9.393 62.019s-42.299 10.327-62.019-9.393-9.393-62.019-9.393-62.019 42.299-10.326 62.019 9.393z" fill="#26457d"/><path d="M463.141 120.454c-8.303 1.584-16.337 4.796-22.304 10.763-19.72 19.72-9.393 62.019-9.393 62.019s42.299 10.327 62.019-9.393c.214-.214.419-.433.626-.652a239.904 239.904 0 00-30.948-62.737zM138.286 407.352l12.688 82.651c.762 4.964-4.16 8.87-8.82 6.999-24.573-9.867-82.676-42.024-65.108-121.05z" fill="#26457d"/><path d="M454.602 231.686l-5.206-67.397c-.747-9.666-8.628-17.464-18.322-17.572-9.595-.107-17.672 7.109-18.664 16.629l-9.916 95.183c-1.724 16.551-15.675 29.124-32.316 29.124-14.832 0-27.735-10.058-31.463-24.414-18.687-71.949-84.055-125.078-161.843-125.113C85.816 138.088 9.684 214.031 9.51 305.088L231.339 414.55c70.358 34.718 156.203 9.529 195.243-58.526.654-1.14 1.298-2.286 1.931-3.438 19.773-35.975 29.42-77.774 26.089-120.9z" fill="#3b69af"/><path d="M403.947 364.61c-36.243 11.871-145.451 7.03-199.329-55.882-54.043 28.527-151.787 25.657-195.063.551 2.054 90.605 76.85 152.098 167.242 163.423 55.583 6.964 104.576-.379 140.767-12.431 52.574-17.508 93.325-68.205 110.946-107.688-7.578 5.04-15.631 9.101-24.563 12.027z" fill="#d2f0ff"/><circle cx="166.779" cy="251.077" fill="#26457d" r="15.726"/><circle cx="166.779" cy="244.225" fill="#fff" r="15.726"/><circle cx="164.808" cy="246.196" fill="#21386b" r="5.341"/><path d="M421.873 356.656c-21.562 31.732-54.001 62.284-91.736 74.85-41.966 13.977-91.575 18.353-139.689 12.326-44.819-5.615-85.798-23.851-115.386-51.346-22.443-20.855-37.611-46.065-44.852-74.15a141.398 141.398 0 01-5.529-1.975c7.118 30.269 23.05 57.407 47.05 79.709 30.335 28.189 72.28 46.875 118.11 52.617a346.642 346.642 0 0043.036 2.675c34.612 0 68.646-5.168 98.808-15.213 37.439-12.468 69.767-42.072 91.859-73.341a184.632 184.632 0 004.968-10.225 109.794 109.794 0 01-6.639 4.073z" fill="#afe6ff"/><path d="M170.591 343.909c22.671 25.773 54.041 42.862 88.33 48.117a212.533 212.533 0 0032.164 2.446c25.873 0 51.314-4.727 73.865-13.914 7.509-3.059 14.739-7.247 21.62-12.283-3.212.418-6.628.755-10.227 1.001-4.3 2.634-8.718 4.908-13.24 6.75-31.074 12.66-67.812 16.623-103.44 11.163-33.156-5.082-63.484-21.6-85.397-46.513a142.69 142.69 0 01-12.888-17.096c-1.707.359-3.427.699-5.158 1.022a147.736 147.736 0 0014.371 19.307z" fill="#afe6ff"/><path d="M86.619 328.528c7.385 14.745 17.374 28.275 29.834 40.272 26.698 25.704 63.614 42.743 103.949 47.978a294.48 294.48 0 0037.855 2.438c30.448 0 60.39-4.711 86.927-13.867 22.781-7.86 43.41-23.183 60.398-41.309-.546.189-1.084.388-1.636.569-2.294.751-4.882 1.435-7.728 2.042-15.27 14.948-33.144 27.349-52.63 34.072-36.82 12.703-80.346 16.681-122.556 11.202-39.302-5.102-75.238-21.669-101.185-46.651-11.34-10.918-20.562-23.152-27.561-36.441a284.788 284.788 0 01-5.667-.305z" fill="#afe6ff"/><path d="M308.024 330.525l31.8 77.336c1.91 4.645-1.953 9.6-6.923 8.879-26.205-3.801-90.249-21.366-91.79-102.307zM1.566 302.334s5.636-51.733 42.262-97.426L34.53 318.126z" fill="#3b69af"/><path d="M110.147 333.547c-59.017 0-91.856-14.88-106.016-23.584-4.659-2.864-5.535-9.267-1.821-13.282.329.301 33.89 29.978 120.73 26.842 24.92-.899 60.709-6.17 89.695-26.173 17.276-11.922 24.046-23.62 24.113-23.736l8.534 4.792c-.303.541-7.634 13.416-26.51 26.598-17.119 11.957-47.58 26.572-95.48 28.3-4.55.164-8.971.243-13.245.243z" fill="#26457d"/><circle cx="164.406" cy="98.118" fill="#b3f0eb" r="30.276"/><circle cx="173.072" cy="89.452" fill="#d0f7f3" r="11.302"/><circle cx="86.619" cy="76.048" fill="#b3f0eb" r="21.855"/><circle cx="92.875" cy="69.793" fill="#d0f7f3" r="8.158"/><circle cx="125.947" cy="29.592" fill="#b3f0eb" r="21.855"/><circle cx="132.203" cy="23.336" fill="#d0f7f3" r="8.158"/></svg>