<svg width="91" height="101" fill="none" xmlns="http://www.w3.org/2000/svg"><path d="M73.585 31.833c7.686 0 13.916-6.23 13.916-13.916S81.271 4 73.585 4s-13.917 6.23-13.917 13.917c0 7.686 6.23 13.916 13.917 13.916z" stroke="url(#paint0_linear)" stroke-width="7"/><path d="M73.585 96.779c7.686 0 13.916-6.231 13.916-13.917s-6.23-13.917-13.916-13.917-13.917 6.231-13.917 13.917 6.23 13.917 13.917 13.917z" stroke="url(#paint1_linear)" stroke-width="7"/><path d="M17.917 64.306c7.686 0 13.916-6.23 13.916-13.917 0-7.686-6.23-13.916-13.916-13.916S4 42.703 4 50.389s6.23 13.917 13.917 13.917z" stroke="url(#paint2_linear)" stroke-width="7"/><path d="M61.559 75.846l-31.61-18.44M61.56 24.93L29.95 43.37l31.61-18.44z" stroke="url(#paint3_linear)" stroke-width="7" stroke-linecap="round" stroke-linejoin="round"/><defs><linearGradient id="paint0_linear" x1="59.668" y1="6.417" x2="86.775" y2="28.482" gradientUnits="userSpaceOnUse"><stop stop-color="#2A3993"/><stop offset="1" stop-color="#727EC9"/></linearGradient><linearGradient id="paint1_linear" x1="59.668" y1="71.362" x2="86.775" y2="93.427" gradientUnits="userSpaceOnUse"><stop stop-color="#2A3993"/><stop offset="1" stop-color="#727EC9"/></linearGradient><linearGradient id="paint2_linear" x1="4" y1="38.889" x2="31.107" y2="60.954" gradientUnits="userSpaceOnUse"><stop stop-color="#2A3993"/><stop offset="1" stop-color="#727EC9"/></linearGradient><linearGradient id="paint3_linear" x1="29.949" y1="29.351" x2="70.719" y2="49.953" gradientUnits="userSpaceOnUse"><stop stop-color="#2A3993"/><stop offset="1" stop-color="#727EC9"/></linearGradient></defs></svg>