<svg width="97" height="97" fill="none" xmlns="http://www.w3.org/2000/svg"><path d="M36.375 0c-7.72 0-13.972 5.606-15.536 12.885-9.425 1.681-16.797 9.546-16.797 19.448 0 .995.109 1.88.254 2.781C1.69 38.946 0 43.46 0 48.5c0 7.263 3.617 13.374 8.714 17.808-.364 1.438-.63 2.873-.63 4.421 0 9.995 8.192 18.188 18.187 18.188h.255C28.878 93.48 32.952 97 38.395 97A14.104 14.104 0 0048.5 92.704 14.105 14.105 0 0058.604 97c5.448 0 9.518-3.52 11.875-8.083h.25c9.49 0 17.27-7.389 18.062-16.672h.126c0-.255-.11-.505-.126-.76.017-.25.126-.505.126-.756 0-1.5-.538-2.78-.886-4.167C93.274 62.108 97 55.892 97 48.5c0-5.036-1.69-9.55-4.296-13.39.145-.897.254-1.778.254-2.777 0-9.902-7.372-17.763-16.797-19.452C74.597 5.61 68.345 0 60.625 0c-4.85 0-9.158 2.26-12.125 5.683C45.533 2.263 41.225 0 36.375 0zm0 8.083c4.514 0 8.083 3.57 8.083 8.084v8.083c0 5.348-3.388 9.842-8.154 11.47-2.112.723-3.97 2.465-3.97 4.697s1.828 4.085 4.013 3.627c2.998-.628 5.74-1.942 8.111-3.753v42.563c0 3.395-2.667 6.063-6.062 6.063a5.942 5.942 0 01-5.937-4.927l-.756-3.912-3.916.63a10.053 10.053 0 01-11.62-9.979c0-1.249.202-2.417.63-3.536.032-.093.097-.162.125-.255a9.942 9.942 0 013.589-4.484c1.857-1.278 3.369-3.373 2.913-5.58-.451-2.189-2.613-3.645-4.653-2.735a17.993 17.993 0 00-6.646 5.096A15.997 15.997 0 018.083 48.5a15.763 15.763 0 013.537-9.979l1.265-1.516-.38-2.02a11.552 11.552 0 01-.38-2.652A12.068 12.068 0 0124.25 20.208h4.042v-4.041c0-4.515 3.568-8.084 8.083-8.084zm24.25 0c4.514 0 8.083 3.57 8.083 8.084v4.041h4.042a12.068 12.068 0 0112.125 12.125c0 .87-.162 1.706-.38 2.652l-.376 2.02 1.261 1.516a15.763 15.763 0 013.537 9.979c0 4.85-2.07 9.175-5.432 12.125-2.76-2.445-6.281-4.042-10.23-4.042-2.388 0-4.63.531-6.638 1.493-1.994.954-2.196 3.537-.778 5.232 1.44 1.72 4.058 1.784 6.276 1.443a7.302 7.302 0 011.14-.084c3.9 0 7.008 2.922 7.453 6.693-.331 5.323-4.58 9.473-9.979 9.473-.364 0-.808-.016-1.516-.125l-3.916-.635-.756 3.92a5.941 5.941 0 01-5.937 4.924c-3.395 0-6.062-2.668-6.062-6.063V40.291a19.865 19.865 0 008.107 3.747c2.186.457 4.018-1.393 4.018-3.626 0-2.23-1.856-3.97-3.966-4.69-4.77-1.628-8.16-6.122-8.16-11.472v-8.083c0-4.515 3.57-8.084 8.084-8.084z" fill="url(#paint0_linear)"/><defs><linearGradient id="paint0_linear" x1="0" y1="8.423" x2="94.468" y2="85.319" gradientUnits="userSpaceOnUse"><stop stop-color="#2A3993"/><stop offset="1" stop-color="#727EC9"/></linearGradient></defs></svg>