<svg width="92" height="92" fill="none" xmlns="http://www.w3.org/2000/svg"><path d="M26.312 66.527l8.1-2.337 48.774-49.355a2.097 2.097 0 00-.014-2.944l-2.92-2.953a2.038 2.038 0 00-2.908-.014L28.7 58.151l-2.392 8.371.005.005zm59.722-63.44l2.92 2.958c4.03 4.08 4.067 10.662.074 14.7L38.768 71.61l-17.314 4.987a4.145 4.145 0 01-5.106-2.866 4.209 4.209 0 01-.009-2.328l5.037-17.663L71.502 3.01a10.188 10.188 0 0114.532.074v.004zM33.046 8.391c2.282 0 4.131 1.872 4.131 4.18a4.152 4.152 0 01-4.13 4.182H16.522c-4.563 0-8.261 3.744-8.261 8.358v50.164c0 4.618 3.698 8.363 8.261 8.363h49.57c4.563 0 8.266-3.745 8.266-8.363v-16.72c0-2.309 1.85-4.18 4.13-4.18 2.282 0 4.132 1.871 4.132 4.185v16.715C82.62 84.512 75.219 92 66.093 92h-49.57C7.397 92 0 84.512 0 75.275V25.111C0 15.879 7.397 8.39 16.523 8.39h16.523z" fill="url(#paint0_linear)"/><defs><linearGradient id="paint0_linear" x1="0" y1="7.989" x2="89.599" y2="80.921" gradientUnits="userSpaceOnUse"><stop stop-color="#2A3993"/><stop offset="1" stop-color="#727EC9"/></linearGradient></defs></svg>