<svg width="120" height="90" fill="none" xmlns="http://www.w3.org/2000/svg"><path d="M112.5 90s7.5 0 7.5-7.5-7.5-30-37.5-30S45 75 45 82.5s7.5 7.5 7.5 7.5h60zm-59.835-7.5a1.92 1.92 0 01-.165-.03c.008-1.98 1.252-7.725 5.7-12.9C62.34 64.718 69.615 60 82.5 60c12.877 0 20.152 4.725 24.3 9.57 4.447 5.175 5.685 10.928 5.7 12.9l-.06.015-.105.015h-59.67zm29.835-45a15 15 0 100-30 15 15 0 000 30zm22.5-15a22.495 22.495 0 01-6.59 15.91A22.5 22.5 0 11105 22.5zM52.02 54.6c-3-.945-6.093-1.566-9.225-1.852A55.1 55.1 0 0037.5 52.5C7.5 52.5 0 75 0 82.5 0 87.502 2.498 90 7.5 90h31.62a16.786 16.786 0 01-1.62-7.5c0-7.575 2.828-15.315 8.175-21.78a39.686 39.686 0 016.345-6.12zM36.9 60A41.198 41.198 0 0030 82.5H7.5c0-1.95 1.23-7.725 5.7-12.93 4.088-4.77 11.19-9.42 23.7-9.562V60zM11.25 26.25a22.5 22.5 0 1145 0 22.5 22.5 0 01-45 0zm22.5-15a15 15 0 100 30 15 15 0 000-30z" fill="url(#paint0_linear)"/><defs><linearGradient id="paint0_linear" x1="0" y1="7.815" x2="89.215" y2="104.641" gradientUnits="userSpaceOnUse"><stop stop-color="#2A3993"/><stop offset="1" stop-color="#727EC9"/></linearGradient></defs></svg>