<svg viewBox="0 0 1440 329" xmlns="http://www.w3.org/2000/svg" xmlns:xlink="http://www.w3.org/1999/xlink"><style>:root&gt;svg{display:none}:root&gt;svg:target{display:block}</style><svg viewBox="0 0 30 14" id="css--burger" xmlns="http://www.w3.org/2000/svg"><path stroke="#fff" stroke-width="2" stroke-linecap="round" d="M1 1h27.989M1 6.998h27.989M1 12.996h27.989"/></svg><svg fill="#fff" viewBox="0 0 329.269 329" id="css--close" xmlns="http://www.w3.org/2000/svg"><path d="M194.8 164.77L323.013 36.555c8.343-8.34 8.343-21.825 0-30.164-8.34-8.34-21.825-8.34-30.164 0L164.633 134.605 36.422 6.391c-8.344-8.34-21.824-8.34-30.164 0-8.344 8.34-8.344 21.824 0 30.164l128.21 128.215L6.259 292.984c-8.344 8.34-8.344 21.825 0 30.164a21.266 21.266 0 0015.082 6.25c5.46 0 10.922-2.09 15.082-6.25l128.21-128.214 128.216 128.214a21.273 21.273 0 0015.082 6.25c5.46 0 10.922-2.09 15.082-6.25 8.343-8.34 8.343-21.824 0-30.164zm0 0"/></svg><svg viewBox="0 0 35 35" id="css--facebook" xmlns="http://www.w3.org/2000/svg"><path fill-rule="evenodd" clip-rule="evenodd" d="M0 17.598C0 26.298 6.319 33.533 14.583 35V22.36h-4.375V17.5h4.375v-3.89c0-4.374 2.82-6.804 6.806-6.804 1.263 0 2.625.194 3.888.388v4.473h-2.235c-2.14 0-2.625 1.069-2.625 2.43V17.5h4.666l-.777 4.86h-3.89V35C28.682 33.533 35 26.3 35 17.598 35 7.918 27.125 0 17.5 0S0 7.919 0 17.598z"/></svg><svg viewBox="0 0 1440 308" fill="none" id="css--header-fon" xmlns="http://www.w3.org/2000/svg"><path d="M979.909 44.407C1121.94-13.85 1357.15-2.522 1457 10.424V292H-511V83.853c21.021-13.148 101.313-39.446 254.311-39.446 191.248 0 365.359 75.857 568.945 115.301 203.586 39.445 490.115-42.48 667.653-115.3z" fill="#666EA0"/><path d="M336.576 90.085C227.743 38.81 47.512 48.78-29 60.175V308h1508V124.802c-16.11-11.572-77.63-34.718-194.87-34.718-146.54 0-279.96 66.765-435.958 101.481-156 34.717-375.556-37.388-511.596-101.48z" fill="#fff"/></svg><svg viewBox="0 0 35 35" id="css--insta" xmlns="http://www.w3.org/2000/svg"><path fill-rule="evenodd" clip-rule="evenodd" d="M10.285.105C12.151.019 12.746 0 17.5 0s5.349.02 7.213.105c1.865.084 3.137.382 4.251.813a8.61 8.61 0 013.1 2.02 8.548 8.548 0 012.017 3.098c.432 1.114.728 2.386.814 4.248.086 1.869.105 2.464.105 7.216 0 4.754-.02 5.349-.105 7.215-.084 1.861-.382 3.134-.815 4.247a8.585 8.585 0 01-2.017 3.101 8.581 8.581 0 01-3.099 2.017c-1.113.433-2.386.73-4.248.815-1.867.086-2.462.105-7.216.105s-5.349-.02-7.215-.105c-1.861-.084-3.134-.382-4.248-.815a8.587 8.587 0 01-3.1-2.017 8.58 8.58 0 01-2.019-3.099c-.431-1.113-.727-2.386-.813-4.248C.019 22.847 0 22.252 0 17.5c0-4.754.02-5.349.105-7.213.084-1.865.382-3.137.813-4.251a8.585 8.585 0 012.02-3.1A8.578 8.578 0 016.036.919C7.15.487 8.422.191 10.284.105h.001zm14.287 3.15c-1.846-.084-2.4-.102-7.072-.102-4.672 0-5.226.018-7.072.102-1.707.078-2.633.363-3.25.603-.816.318-1.4.695-2.012 1.308a5.428 5.428 0 00-1.308 2.012c-.24.617-.525 1.543-.603 3.25-.084 1.846-.102 2.4-.102 7.072 0 4.672.018 5.226.102 7.072.078 1.707.363 2.633.603 3.25a5.42 5.42 0 001.308 2.012 5.432 5.432 0 002.012 1.308c.617.24 1.543.525 3.25.603 1.846.084 2.398.102 7.072.102 4.674 0 5.226-.018 7.072-.102 1.707-.078 2.633-.363 3.25-.603.816-.318 1.4-.695 2.012-1.308a5.432 5.432 0 001.308-2.012c.24-.617.525-1.543.603-3.25.084-1.846.102-2.4.102-7.072 0-4.672-.018-5.226-.102-7.072-.078-1.707-.363-2.633-.603-3.25-.318-.816-.695-1.4-1.308-2.012a5.43 5.43 0 00-2.012-1.308c-.617-.24-1.543-.525-3.25-.603zm-9.307 19.64a5.838 5.838 0 006.363-9.523 5.837 5.837 0 10-6.363 9.523zM11.139 11.14a8.997 8.997 0 0115.356 6.36 8.995 8.995 0 11-15.356-6.36zM28.49 9.845a2.127 2.127 0 10-2.919-3.095 2.127 2.127 0 002.919 3.095z"/></svg><svg fill="none" viewBox="0 0 42 63" id="css--left" xmlns="http://www.w3.org/2000/svg"><path d="M0 31.5L31.294 0 42 10.61 21.247 31.5 42 52.39 31.294 63 0 31.5z" fill="#2B3990"/></svg><svg viewBox="0 0 138 44" fill="none" id="css--logo" xmlns="http://www.w3.org/2000/svg"><path d="M3.008 42.163a3.015 3.015 0 01-2.127-.877A2.987 2.987 0 010 39.17V4.45c0-.795.317-1.557.88-2.119a3.018 3.018 0 012.128-.879 3.015 3.015 0 012.127.88 2.99 2.99 0 01.881 2.118v13h24.012v-13c0-.795.317-1.557.881-2.119a3.018 3.018 0 014.257 0 2.99 2.99 0 01.882 2.119v34.718a2.993 2.993 0 01-.883 2.117 3.018 3.018 0 01-4.255 0 2.987 2.987 0 01-.882-2.117V23.436H6.016V39.17a2.99 2.99 0 01-.88 2.117 3.015 3.015 0 01-2.128.877zm76.154-7.296a21.823 21.823 0 01-7.925 6.468 21.927 21.927 0 01-19.919-.469 21.809 21.809 0 01-7.609-6.834 3.06 3.06 0 01.935-4.372 3.094 3.094 0 011.594-.445 3.124 3.124 0 012.56 1.365 16.063 16.063 0 001.857 2.218 15.657 15.657 0 005.09 3.401 15.714 15.714 0 0012.02 0 15.657 15.657 0 005.09-3.4c.5-.534.983-1.082 1.424-1.652a2.996 2.996 0 012.614-1.178h.056c.55.043 1.078.233 1.529.55a3.05 3.05 0 01.684 4.35zM56.54.595c-7.13 1.624-14.398 8.872-16.042 15.97a23.153 23.153 0 00-.591 4.845 2.262 2.262 0 00.651 1.634 2.282 2.282 0 001.627.681l9.178.06h30.192a2.058 2.058 0 001.444-.598c.384-.381.6-.898.603-1.437C83.602 8.02 70.915-2.683 56.54.595zm-9.978 17.2a15.849 15.849 0 014.09-7.095 15.656 15.656 0 015.09-3.4 15.714 15.714 0 0112.021 0 15.657 15.657 0 015.09 3.4 15.874 15.874 0 014.088 7.096H46.56zm61.12 21.52a2.845 2.845 0 01-.84 2.014 2.87 2.87 0 01-2.024.834H90.466a2.824 2.824 0 01-1.992-.821 2.798 2.798 0 01-.826-1.983V4.507c0-.81.324-1.587.899-2.16a3.075 3.075 0 014.338 0 3.05 3.05 0 01.899 2.16v31.951h11.04a2.882 2.882 0 012.024.84 2.85 2.85 0 01.834 2.017zm25.936-33.501a14.69 14.69 0 013.258 4.822A14.615 14.615 0 01138 16.34a14.821 14.821 0 01-4.382 10.47c-2.749 2.847-6.545 4.302-10.577 4.302h-5.14v8.083c0 .756-.301 1.48-.838 2.015a2.87 2.87 0 01-2.023.836h-.41c-.76 0-1.488-.3-2.025-.835a2.841 2.841 0 01-.839-2.016V4.156a2.7 2.7 0 01.795-1.912 2.725 2.725 0 011.922-.793h8.558a14.814 14.814 0 015.731 1.119 14.76 14.76 0 014.846 3.244zm-1.822 9.036c-.72-4.287-4.573-7.36-8.943-7.36h-4.952v17.515h5.14c5.337 0 9.682-4.646 8.743-10.145l.012-.01z" fill="#fff"/></svg><svg fill="none" viewBox="0 0 60 69" id="css--play" xmlns="http://www.w3.org/2000/svg"><path d="M60 34.5L.75 68.708V.292L60 34.5z" fill="#C4C4C4"/></svg><svg fill="none" viewBox="0 0 42 63" id="css--right" xmlns="http://www.w3.org/2000/svg"><path d="M42 31.5L10.706 0 0 10.61 20.753 31.5 0 52.39 10.706 63 42 31.5z" fill="#2B3990"/></svg><svg viewBox="0 0 35 30" id="css--tg" xmlns="http://www.w3.org/2000/svg"><path d="M32.017.258s3.238-1.263 2.967 1.803c-.09 1.262-.898 5.681-1.528 10.46L31.297 26.68s-.18 2.074-1.799 2.435c-1.618.36-4.047-1.263-4.496-1.624-.36-.27-6.745-4.329-8.994-6.312-.63-.542-1.35-1.623.09-2.886l9.443-9.018c1.079-1.082 2.158-3.607-2.339-.54L10.611 17.3s-1.44.902-4.137.09L.628 15.587s-2.159-1.352 1.529-2.705C11.15 8.644 22.213 4.316 32.016.258h.001z"/></svg><svg viewBox="0 0 35 21" id="css--vk" xmlns="http://www.w3.org/2000/svg"><path fill-rule="evenodd" clip-rule="evenodd" d="M17.177 19.947h2.122s.637-.106.955-.424c.318-.318.318-.955.318-.955s0-2.759 1.273-3.183c1.274-.425 2.971 2.759 4.669 3.926 1.273.955 2.228.742 2.228.742l4.669-.106s2.44-.106 1.273-2.122c-.106-.106-.637-1.379-3.501-4.032-2.971-2.758-2.547-2.228.954-7.002 2.123-2.865 2.971-4.563 2.76-5.412-.213-.742-1.805-.53-1.805-.53h-5.305s-.424-.106-.636.106c-.319.212-.425.53-.425.53s-.849 2.229-1.91 4.138C22.482 9.55 21.527 9.761 21.21 9.55c-.849-.53-.637-2.334-.637-3.501 0-3.82.637-5.411-1.167-5.836C18.875.106 18.45 0 16.965 0c-1.91 0-3.502 0-4.35.424-.637.319-1.062.955-.743.955.318 0 1.167.213 1.591.743.425.955.425 2.547.425 2.547s.318 4.562-.743 5.092c-.743.425-1.698-.424-3.82-4.031-1.06-1.804-1.91-3.926-1.91-3.926s-.106-.425-.424-.637C6.673.955 6.142.85 6.142.85H1.155s-.742 0-1.06.318c-.213.318 0 .849 0 .849S4.02 11.142 8.476 15.81c4.138 4.457 8.7 4.138 8.7 4.138z"/></svg></svg>