<svg width="139" height="140" fill="none" xmlns="http://www.w3.org/2000/svg"><path fill-rule="evenodd" clip-rule="evenodd" d="M69.5 0c-1.833 0-3.642.427-5.256 1.247l-.004.003L5.572 31.306a10.535 10.535 0 00-3.74 3.188l-.006.005-.096.138-.028.04c-.044.062-.113.16-.176.257l-.009.012a1.739 1.739 0 00-.1.164l-.01.018A9.408 9.408 0 000 40.048v59.897a9.442 9.442 0 001.516 5.1c.986 1.535 2.39 2.787 4.056 3.642l.001.001 58.667 30.055.007.004a11.49 11.49 0 004.572 1.21c.21.025.42.04.63.043h.069a6.04 6.04 0 00.686-.044 11.507 11.507 0 004.55-1.209l.006-.004 58.668-30.056c1.666-.855 3.071-2.107 4.057-3.642a9.437 9.437 0 001.516-5.1V40.047a9.383 9.383 0 00-1.22-4.602v-.011l-.145-.238-.057-.093-.016-.03-.021-.036a2.309 2.309 0 00-.077-.12c-.984-1.523-2.382-2.764-4.038-3.613L74.759 1.25l-.004-.003A11.614 11.614 0 0069.5 0zm52.595 37.23L69.5 10.287 49.035 20.769l53.213 26.73 19.847-10.269zM90.797 53.425l-53.27-26.759-20.535 10.52L70.107 64.13l20.69-10.706zM128 45.933v53.803l-52.915 27.11.519-53.801L96.68 62.138v22.74c0 1.412.617 2.734 1.662 3.686 1.04.947 2.423 1.458 3.838 1.458 1.416 0 2.799-.511 3.839-1.458 1.044-.951 1.661-2.273 1.661-3.685V56.446L128 45.933zM11 99.736V45.85l53.603 27.193-.52 53.889L11 99.736z" fill="url(#paint0_linear)"/><defs><linearGradient id="paint0_linear" x1="0" y1="12.157" x2="136.144" y2="122.185" gradientUnits="userSpaceOnUse"><stop stop-color="#2A3993"/><stop offset="1" stop-color="#727EC9"/></linearGradient></defs></svg>