<svg viewBox="0 0 1440 308" xmlns="http://www.w3.org/2000/svg" xmlns:xlink="http://www.w3.org/1999/xlink"><style>:root&gt;svg{display:none}:root&gt;svg:target{display:block}</style><svg viewBox="0 0 1440 308" fill="none" id="css--header-fon" xmlns="http://www.w3.org/2000/svg"><path d="M979.909 44.407C1121.94-13.85 1357.15-2.522 1457 10.424V292H-511V83.853c21.021-13.148 101.313-39.446 254.311-39.446 191.248 0 365.359 75.857 568.945 115.301 203.586 39.445 490.115-42.48 667.653-115.3z" fill="#666EA0"/><path d="M336.576 90.085C227.743 38.81 47.512 48.78-29 60.175V308h1508V124.802c-16.11-11.572-77.63-34.718-194.87-34.718-146.54 0-279.96 66.765-435.958 101.481-156 34.717-375.556-37.388-511.596-101.48z" fill="#fff"/></svg><svg viewBox="0 0 138 44" fill="none" id="css--logo" xmlns="http://www.w3.org/2000/svg"><path d="M3.008 42.163a3.015 3.015 0 01-2.127-.877A2.987 2.987 0 010 39.17V4.45c0-.795.317-1.557.88-2.119a3.018 3.018 0 012.128-.879 3.015 3.015 0 012.127.88 2.99 2.99 0 01.881 2.118v13h24.012v-13c0-.795.317-1.557.881-2.119a3.018 3.018 0 014.257 0 2.99 2.99 0 01.882 2.119v34.718a2.993 2.993 0 01-.883 2.117 3.018 3.018 0 01-4.255 0 2.987 2.987 0 01-.882-2.117V23.436H6.016V39.17a2.99 2.99 0 01-.88 2.117 3.015 3.015 0 01-2.128.877zm76.154-7.296a21.823 21.823 0 01-7.925 6.468 21.927 21.927 0 01-19.919-.469 21.809 21.809 0 01-7.609-6.834 3.06 3.06 0 01.935-4.372 3.094 3.094 0 011.594-.445 3.124 3.124 0 012.56 1.365 16.063 16.063 0 001.857 2.218 15.657 15.657 0 005.09 3.401 15.714 15.714 0 0012.02 0 15.657 15.657 0 005.09-3.4c.5-.534.983-1.082 1.424-1.652a2.996 2.996 0 012.614-1.178h.056c.55.043 1.078.233 1.529.55a3.05 3.05 0 01.684 4.35zM56.54.595c-7.13 1.624-14.398 8.872-16.042 15.97a23.153 23.153 0 00-.591 4.845 2.262 2.262 0 00.651 1.634 2.282 2.282 0 001.627.681l9.178.06h30.192a2.058 2.058 0 001.444-.598c.384-.381.6-.898.603-1.437C83.602 8.02 70.915-2.683 56.54.595zm-9.978 17.2a15.849 15.849 0 014.09-7.095 15.656 15.656 0 015.09-3.4 15.714 15.714 0 0112.021 0 15.657 15.657 0 015.09 3.4 15.874 15.874 0 014.088 7.096H46.56zm61.12 21.52a2.845 2.845 0 01-.84 2.014 2.87 2.87 0 01-2.024.834H90.466a2.824 2.824 0 01-1.992-.821 2.798 2.798 0 01-.826-1.983V4.507c0-.81.324-1.587.899-2.16a3.075 3.075 0 014.338 0 3.05 3.05 0 01.899 2.16v31.951h11.04a2.882 2.882 0 012.024.84 2.85 2.85 0 01.834 2.017zm25.936-33.501a14.69 14.69 0 013.258 4.822A14.615 14.615 0 01138 16.34a14.821 14.821 0 01-4.382 10.47c-2.749 2.847-6.545 4.302-10.577 4.302h-5.14v8.083c0 .756-.301 1.48-.838 2.015a2.87 2.87 0 01-2.023.836h-.41c-.76 0-1.488-.3-2.025-.835a2.841 2.841 0 01-.839-2.016V4.156a2.7 2.7 0 01.795-1.912 2.725 2.725 0 011.922-.793h8.558a14.814 14.814 0 015.731 1.119 14.76 14.76 0 014.846 3.244zm-1.822 9.036c-.72-4.287-4.573-7.36-8.943-7.36h-4.952v17.515h5.14c5.337 0 9.682-4.646 8.743-10.145l.012-.01z" fill="#fff"/></svg></svg>