<svg width="152" height="134" fill="none" xmlns="http://www.w3.org/2000/svg"><path fill-rule="evenodd" clip-rule="evenodd" d="M68.984 1.684a15 15 0 0113.81 0l60.888 31.572a15 15 0 018.095 13.316v30.816a5.42 5.42 0 11-10.841 0V52.872l-57.763 32.09a15 15 0 01-14.569 0L4.04 49.092a7.854 7.854 0 01.199-13.838l64.745-33.57zm50.27 50.832l10.841-6.023 7.514-4.175-61.72-32.003-61.72 32.003 7.514 4.175 10.84 6.023L75.89 76.609l43.365-24.093zm-43.365 70.149l37.944-21.344v-19.36a5.42 5.42 0 012.788-4.739c3.613-2.007 8.053.605 8.053 4.739v19.852a9.999 9.999 0 01-5.097 8.716l-38.786 21.817a10.002 10.002 0 01-9.805 0L32.2 110.529a10 10 0 01-5.097-8.716V81.96c0-4.133 4.44-6.745 8.053-4.738a5.42 5.42 0 012.788 4.739v19.36l37.945 21.344z" fill="url(#paint0_linear)"/><defs><linearGradient id="paint0_linear" x1="0" y1="11.604" x2="132.5" y2="134.104" gradientUnits="userSpaceOnUse"><stop stop-color="#2A3993"/><stop offset="1" stop-color="#727EC9"/></linearGradient></defs></svg>